<svg width="134" height="145" viewBox="0 0 134 145" fill="none" xmlns="http://www.w3.org/2000/svg">
<path d="M90 125L90.4121 126.442L90.1358 123.506L90 125ZM73.5 123.5L73.6358 122.006L71.7098 121.831L72.0193 123.74L73.5 123.5ZM76.5 142L75.0193 142.24L75.3379 144.205L77.1387 143.357L76.5 142ZM93.5 134L94.1387 135.357L96.6824 134.16L94.2717 132.714L93.5 134ZM91 132.5L89.9393 133.561L90.0699 133.691L90.2283 133.786L91 132.5ZM89 130.5L90.0607 129.439L89.9853 129.364L89.9 129.3L89 130.5ZM87 129L87.9 127.8L87.5 127.5H87V129ZM84.5 129V127.5H84.2798L84.069 127.563L84.5 129ZM79.5 130.5L78.4393 129.439L79.931 131.937L79.5 130.5ZM83 127L82.5879 125.558L82.2142 125.664L81.9393 125.939L83 127ZM131.978 38.4309L130.48 38.5009L130.48 38.5009L131.978 38.4309ZM122.598 73.1195L123.874 73.9084L123.983 73.7322L124.04 73.5332L122.598 73.1195ZM66.4148 64.9409L67.1993 63.6624L67.1993 63.6624L66.4148 64.9409ZM52.6495 50.3887L54.1304 50.15L54.1304 50.15L52.6495 50.3887ZM93.6964 75.9763L94.2031 74.5645L94.203 74.5645L93.6964 75.9763ZM104.508 92.4153L103.192 93.1356L103.278 93.2931L103.4 93.4259L104.508 92.4153ZM69.8881 100.203L71.3723 99.9857L71.2004 98.8116L70.0183 98.7087L69.8881 100.203ZM2.60878 94.3423L2.73895 92.848L0.873746 92.6855L1.12203 94.5412L2.60878 94.3423ZM8.21085 136.214L6.7241 136.413L6.88346 137.604L8.08068 137.708L8.21085 136.214ZM76.0241 142.121L75.8939 143.615L77.7829 143.78L77.5083 141.904L76.0241 142.121ZM119.382 126.303L120.593 127.189L120.921 126.74L120.877 126.186L119.382 126.303ZM99.014 136.577L97.9679 137.652L98.2708 137.947L98.683 138.04L99.014 136.577ZM92.1796 134.442L91.5912 133.062L92.6467 135.867L92.1796 134.442ZM102.766 130.973L103.233 132.398L103.882 132.186L104.148 131.557L102.766 130.973ZM81.4596 128.705L80.5251 127.532L80.525 127.532L81.4596 128.705ZM94.3236 120.967L94.7328 122.41L94.7343 122.41L94.3236 120.967ZM30.4783 117.768L29.3437 118.749L29.3438 118.749L30.4783 117.768ZM36.2066 115.292L34.8376 115.905L36.148 118.831L37.5545 115.95L36.2066 115.292ZM90.1358 123.506L73.6358 122.006L73.3642 124.994L89.8642 126.494L90.1358 123.506ZM72.0193 123.74L75.0193 142.24L77.9807 141.76L74.9807 123.26L72.0193 123.74ZM77.1387 143.357L94.1387 135.357L92.8613 132.643L75.8613 140.643L77.1387 143.357ZM94.2717 132.714L91.7717 131.214L90.2283 133.786L92.7283 135.286L94.2717 132.714ZM92.0607 131.439L90.0607 129.439L87.9393 131.561L89.9393 133.561L92.0607 131.439ZM89.9 129.3L87.9 127.8L86.1 130.2L88.1 131.7L89.9 129.3ZM87 127.5H84.5V130.5H87V127.5ZM84.069 127.563L79.069 129.063L79.931 131.937L84.931 130.437L84.069 127.563ZM80.5607 131.561L84.0607 128.061L81.9393 125.939L78.4393 129.439L80.5607 131.561ZM83.4121 128.442L90.4121 126.442L89.5879 123.558L82.5879 125.558L83.4121 128.442ZM70.4584 21.3036C70.4584 28.453 72.1801 33.1371 75.2093 36.0021C78.2273 38.8564 82.2408 39.6143 86.1496 39.6143V36.6143C82.5544 36.6143 79.4722 35.9046 77.2707 33.8225C75.0803 31.7509 73.4584 28.0297 73.4584 21.3036H70.4584ZM84.6558 28.1109C85.3879 36.1284 90.6249 41.1288 96.1812 43.5885C98.9547 44.8162 101.856 45.4379 104.415 45.4968C106.916 45.5543 109.335 45.0774 110.927 43.8317L109.077 41.4693C108.283 42.0915 106.694 42.5484 104.484 42.4976C102.334 42.4481 99.8211 41.919 97.3956 40.8453C92.554 38.702 88.2513 34.4966 87.6434 27.8381L84.6558 28.1109ZM107.917 59.8577C110.578 59.2633 112.525 58.0531 113.742 56.4355C114.959 54.8182 115.353 52.9155 115.119 51.128C114.661 47.6297 111.733 44.3525 107.59 44.3525V47.3525C110.001 47.3525 111.851 49.2786 112.144 51.5173C112.286 52.5983 112.048 53.6975 111.345 54.6318C110.642 55.5658 109.38 56.4569 107.263 56.9299L107.917 59.8577ZM79.721 5.89263C95.6355 -0.241047 108.749 6.92931 114.853 10.6286L116.407 8.063C110.183 4.2909 95.9597 -3.58111 78.6422 3.09334L79.721 5.89263ZM114.853 10.6286C117.636 12.3154 121.436 16.4832 124.631 21.7631C127.812 27.0202 130.228 33.1097 130.48 38.5009L133.476 38.3609C133.192 32.2782 130.516 25.693 127.198 20.21C123.894 14.7497 119.788 10.1119 116.407 8.063L114.853 10.6286ZM130.48 38.5009C130.68 42.7894 129.403 47.8045 127.497 53.6131C125.625 59.3192 123.128 65.833 121.156 72.7058L124.04 73.5332C125.998 66.7084 128.406 60.4675 130.348 54.5484C132.257 48.7319 133.705 43.2515 133.476 38.3609L130.48 38.5009ZM121.322 72.3306C121.142 72.6218 121.044 72.985 120.994 73.1786C120.925 73.4418 120.856 73.7635 120.787 74.124C120.65 74.8486 120.502 75.8003 120.357 76.8988C120.067 79.0985 119.785 81.9421 119.626 84.8383C119.468 87.7255 119.431 90.7122 119.646 93.1801C119.754 94.411 119.928 95.5629 120.202 96.529C120.461 97.4419 120.873 98.428 121.618 99.0708L123.578 96.7996C123.519 96.7486 123.305 96.475 123.088 95.7102C122.886 94.9985 122.734 94.0544 122.635 92.9191C122.437 90.6545 122.467 87.8276 122.622 85.0023C122.776 82.186 123.051 79.4183 123.331 77.2902C123.471 76.2249 123.611 75.3336 123.734 74.6839C123.797 74.3572 123.851 74.109 123.896 73.9379C123.959 73.6972 123.964 73.7618 123.874 73.9084L121.322 72.3306ZM105.937 78.6312C102.465 86.9859 105.438 95.0141 108.875 98.9255L111.129 96.945C108.312 93.7407 105.747 86.9045 108.707 79.7826L105.937 78.6312ZM56.1075 81.6085C56.1075 85.0385 56.1646 87.2878 55.7092 89.294C55.2805 91.1828 54.3747 92.9035 52.2497 95.0657L54.3893 97.1685C56.8203 94.695 58.0585 92.4969 58.6348 89.958C59.1844 87.5365 59.1075 84.8494 59.1075 81.6085H56.1075ZM61.469 85.7002C61.8964 86.6366 61.8429 88.3077 61.1516 90.2591C60.48 92.1549 59.3362 93.9339 58.1111 94.9733L60.0519 97.2609C61.7748 95.7993 63.177 93.526 63.9794 91.2609C64.7621 89.0515 65.1106 86.4532 64.198 84.4544L61.469 85.7002ZM111.288 72.5648C106.513 84.5637 111.938 95.0919 115.307 98.9255L117.561 96.945C114.676 93.6629 109.845 84.3029 114.076 73.6742L111.288 72.5648ZM65.2181 25.4691C51.8259 43.1887 56.2247 60.4479 65.6303 66.2194L67.1993 63.6624C59.7959 59.1195 54.9053 44.0898 67.6115 27.2779L65.2181 25.4691ZM65.6303 66.2194C70.1501 68.9929 76.0355 70.1246 81.6973 70.0279C87.3594 69.9311 93.0047 68.6025 97.0854 66.2389L95.5818 63.6429C92.0514 65.6878 86.9395 66.9378 81.6461 67.0283C76.3524 67.1188 71.084 66.0462 67.1993 63.6624L65.6303 66.2194ZM76.4507 3.2607C70.3013 3.46942 65.3441 5.14629 61.4533 7.97427C57.5676 10.7985 54.8411 14.7011 53.0328 19.2111C49.4356 28.1822 49.408 39.7049 51.1686 50.6274L54.1304 50.15C52.407 39.4588 52.5134 28.5673 55.8173 20.3276C57.4594 16.2321 59.8752 12.8301 63.2171 10.401C66.554 7.97564 70.9098 6.45049 76.5525 6.25897L76.4507 3.2607ZM51.1686 50.6274C52.5388 59.1273 52.6521 68.7629 51.9322 77.1576C51.5725 81.3513 51.0069 85.2117 50.2951 88.4456C49.5776 91.7054 48.7316 94.2346 47.8525 95.826L50.4785 97.2766C51.5647 95.3102 52.4852 92.4516 53.225 89.0905C53.9704 85.7036 54.5528 81.7101 54.9212 77.4139C55.6574 68.829 55.5475 58.9411 54.1304 50.15L51.1686 50.6274ZM71.269 50.9658C71.7929 48.4886 72.3754 47.1677 72.8275 46.5646C73.0445 46.2752 73.1473 46.2645 73.0866 46.2848C73.0508 46.2968 72.9971 46.3054 72.9379 46.2993C72.882 46.2936 72.853 46.2782 72.8558 46.2797C72.9548 46.3318 73.3228 46.6804 73.6729 47.6163C73.9925 48.4705 74.1976 49.5592 74.1976 50.6555H77.1976C77.1976 49.2168 76.9337 47.7706 76.4828 46.5652C76.0624 45.4415 75.3584 44.2058 74.2513 43.6241C73.6301 43.2976 72.8881 43.187 72.132 43.4407C71.4223 43.679 70.8634 44.1831 70.4271 44.7651C69.5727 45.9048 68.8822 47.7525 68.3339 50.3452L71.269 50.9658ZM82.7932 50.9658C83.3169 48.4886 83.8995 47.1676 84.3515 46.5646C84.5685 46.2752 84.6713 46.2645 84.6106 46.2848C84.5748 46.2968 84.5211 46.3054 84.462 46.2993C84.406 46.2936 84.377 46.2782 84.3799 46.2797C84.4788 46.3317 84.8468 46.6804 85.1969 47.6163C85.5165 48.4705 85.7216 49.5592 85.7216 50.6555H88.7216C88.7216 49.2168 88.4577 47.7706 88.0068 46.5652C87.5864 45.4415 86.8824 44.2058 85.7753 43.6241C85.1541 43.2976 84.4121 43.187 83.656 43.4407C82.9463 43.679 82.3874 44.1832 81.9512 44.7651C81.0967 45.9048 80.4063 47.7525 79.858 50.3452L82.7932 50.9658ZM76.3868 68.1682C76.2853 68.5722 76.255 69.2112 76.2392 69.7775C76.2214 70.4145 76.2199 71.1929 76.2278 72.0036C76.2436 73.6277 76.2977 75.4306 76.3427 76.5965L79.3405 76.4807C79.2962 75.334 79.2431 73.5613 79.2276 71.9744C79.2199 71.1797 79.2217 70.4438 79.238 69.8612C79.2462 69.5692 79.2576 69.3281 79.2719 69.1436C79.2881 68.934 79.3028 68.8736 79.2964 68.8988L76.3868 68.1682ZM90.8136 66.6656V76.5386H93.8136V66.6656H90.8136ZM76.4072 82.4806C75.5241 80.0881 75.5148 78.8559 75.6908 78.268C75.8108 77.8671 76.0605 77.6124 76.7577 77.4248L75.9781 74.5278C74.6835 74.8762 73.3382 75.6651 72.8167 77.4079C72.3511 78.9637 72.6538 80.9754 73.5928 83.5194L76.4072 82.4806ZM76.7577 77.4248C76.8661 77.3956 77.1804 77.3447 77.7537 77.2936C78.2929 77.2456 78.9759 77.2042 79.7618 77.1704C81.3318 77.1029 83.2681 77.0676 85.1977 77.0663C87.1278 77.065 89.035 77.0976 90.5477 77.1644C91.3055 77.1978 91.9497 77.2391 92.4418 77.2872C92.9973 77.3415 93.1983 77.3912 93.1898 77.3881L94.203 74.5645C93.8062 74.4221 93.2368 74.3506 92.7334 74.3014C92.1667 74.2461 91.4637 74.2018 90.6798 74.1673C89.109 74.098 87.1546 74.065 85.1957 74.0663C83.2363 74.0677 81.2561 74.1034 79.6329 74.1732C78.8223 74.2081 78.0895 74.2519 77.4876 74.3055C76.9198 74.356 76.3676 74.423 75.9781 74.5278L76.7577 77.4248ZM93.1897 77.3881C93.6229 77.5436 93.9296 77.747 94.1207 77.9711C94.2897 78.1693 94.4317 78.4545 94.4317 78.9401H97.4317C97.4317 77.7696 97.0536 76.7873 96.4038 76.0249C95.7759 75.2884 94.9651 74.8379 94.2031 74.5645L93.1897 77.3881ZM94.4317 78.9401C94.4317 79.369 94.2694 79.9601 93.9839 80.6386C93.7023 81.3082 93.3939 81.8602 93.1595 82.3268L95.8405 83.6732C96.0081 83.3393 96.4155 82.5952 96.7493 81.8018C97.0792 81.0174 97.4317 79.9788 97.4317 78.9401H94.4317ZM75.3951 80.1274C66.6834 83.9667 61.2275 93.2001 58.6484 99.0114L61.3906 100.228C63.9035 94.5657 68.9686 86.2379 76.6049 82.8726L75.3951 80.1274ZM93.1292 82.2214C94.8982 83.4825 97.0271 85.4892 98.9356 87.5839C100.854 89.6891 102.443 91.7661 103.192 93.1356L105.824 91.695C104.903 90.0138 103.127 87.7298 101.153 85.5634C99.1697 83.3864 96.8796 81.2108 94.8708 79.7786L93.1292 82.2214ZM104.508 92.4153C103.4 93.4259 103.399 93.4258 103.399 93.4257C103.399 93.4257 103.399 93.4257 103.399 93.4257C103.399 93.4257 103.399 93.4258 103.4 93.4259C103.4 93.4263 103.4 93.4269 103.401 93.4279C103.403 93.4297 103.406 93.4328 103.41 93.4371C103.418 93.4457 103.43 93.459 103.446 93.4768C103.478 93.5124 103.525 93.5659 103.587 93.6353C103.71 93.7742 103.887 93.9763 104.101 94.2258C104.528 94.7263 105.095 95.4104 105.659 96.1523C106.227 96.9001 106.769 97.6771 107.162 98.3674C107.358 98.7123 107.502 99.0094 107.594 99.2512C107.692 99.5091 107.698 99.6207 107.698 99.6199H110.698C110.698 99.1041 110.557 98.6043 110.399 98.1865C110.234 97.7526 110.012 97.3097 109.769 96.8827C109.282 96.029 108.652 95.1336 108.047 94.3377C107.439 93.536 106.833 92.8053 106.381 92.2768C106.155 92.0118 105.965 91.7959 105.832 91.6454C105.765 91.5702 105.712 91.5111 105.676 91.4703C105.657 91.4499 105.643 91.4341 105.633 91.4231C105.628 91.4176 105.624 91.4133 105.621 91.4102C105.62 91.4087 105.619 91.4074 105.618 91.4065C105.618 91.4061 105.617 91.4057 105.617 91.4054C105.617 91.4052 105.617 91.4051 105.617 91.405C105.617 91.4049 105.616 91.4047 104.508 92.4153ZM70.0183 98.7087L2.73895 92.848L2.47861 95.8366L69.7579 101.697L70.0183 98.7087ZM1.12203 94.5412L6.7241 136.413L9.6976 136.015L4.09553 94.1434L1.12203 94.5412ZM8.08068 137.708L75.8939 143.615L76.1543 140.627L8.34102 134.72L8.08068 137.708ZM77.5083 141.904L71.3723 99.9857L68.4039 100.42L74.5399 142.338L77.5083 141.904ZM102.489 92.0946C113.201 106.878 117.422 120.495 117.887 126.42L120.877 126.186C120.358 119.571 115.861 105.436 104.919 90.3344L102.489 92.0946ZM118.171 125.417C114.772 130.064 110.669 132.633 107.086 133.967C103.443 135.323 100.453 135.365 99.345 135.114L98.683 138.04C100.523 138.456 104.126 138.271 108.133 136.778C112.202 135.264 116.809 132.362 120.593 127.189L118.171 125.417ZM100.06 135.502C97.6466 133.154 95.8075 132.154 94.1946 132.138C93.3542 132.13 92.7122 132.392 92.2465 132.653C92.0331 132.772 91.8377 132.904 91.7302 132.974C91.5908 133.065 91.5718 133.07 91.5912 133.062L92.768 135.822C93.0219 135.714 93.2449 135.568 93.368 135.487C93.523 135.386 93.6105 135.327 93.7132 135.27C93.8798 135.176 94.0033 135.137 94.1646 135.138C94.5551 135.142 95.6642 135.41 97.9679 137.652L100.06 135.502ZM92.6467 135.867L103.233 132.398L102.299 129.548L91.7125 133.017L92.6467 135.867ZM104.148 131.557C104.509 130.702 104.637 129.835 104.486 128.99C104.335 128.148 103.929 127.442 103.412 126.869C102.417 125.769 100.919 125.058 99.511 124.582C96.655 123.617 93.3026 123.336 92.1796 123.336V126.336C93.0666 126.336 96.0794 126.589 98.5501 127.424C99.8051 127.849 100.711 128.356 101.186 128.881C101.404 129.122 101.499 129.331 101.532 129.517C101.565 129.701 101.559 129.977 101.384 130.389L104.148 131.557ZM92.1796 123.336C91.4773 123.336 90.5268 123.52 89.5724 123.761C88.5781 124.012 87.4449 124.359 86.3212 124.755C85.1976 125.151 84.0628 125.602 83.0679 126.065C82.0979 126.515 81.1708 127.017 80.5251 127.532L82.3942 129.878C82.7534 129.592 83.4176 129.21 84.332 128.785C85.2215 128.372 86.2642 127.956 87.318 127.585C88.3718 127.214 89.4161 126.894 90.3061 126.67C91.2361 126.435 91.8769 126.336 92.1796 126.336V123.336ZM80.525 127.532C78.7043 128.982 77.8749 130.578 77.7059 131.505L80.6573 132.043C80.6551 132.055 80.7194 131.796 81.0061 131.358C81.276 130.945 81.715 130.419 82.3942 129.878L80.525 127.532ZM93.349 123.897C92.9618 123.415 93.0134 123.233 93.0082 123.284C93.0034 123.331 92.9798 123.274 93.1657 123.117C93.3553 122.956 93.641 122.8 93.9709 122.665C94.2878 122.536 94.5704 122.456 94.7328 122.41L93.9144 119.524C93.6218 119.607 92.2322 119.976 91.227 120.827C90.6927 121.28 90.1247 121.987 90.0236 122.98C89.9221 123.978 90.3254 124.923 91.0102 125.775L93.349 123.897ZM94.7343 122.41C94.9445 122.35 95.1831 122.253 95.3677 122.178C95.5816 122.092 95.8132 121.996 96.0954 121.888C96.6502 121.676 97.3847 121.422 98.3319 121.19C100.224 120.726 103.018 120.339 106.956 120.596L107.152 117.602C102.915 117.325 99.8139 117.738 97.6184 118.276C96.5221 118.544 95.6653 118.84 95.0224 119.087C94.7058 119.208 94.437 119.319 94.2416 119.398C94.1403 119.439 94.0638 119.469 94.0021 119.493C93.9721 119.504 93.9497 119.512 93.9334 119.518C93.9166 119.523 93.9106 119.525 93.9129 119.524L94.7343 122.41ZM86.7894 127.269C84.4673 127.967 82.9881 128.663 82.1043 129.67C81.1963 130.704 81.0799 131.967 80.9312 132.658L83.864 133.29C84.1173 132.113 84.1081 131.935 84.3592 131.649C84.6345 131.335 85.3664 130.83 87.6538 130.141L86.7894 127.269ZM91.1238 128.547C88.4286 128.275 86.5093 129.075 85.3216 130.472C84.2033 131.788 83.9222 133.415 83.9818 134.523L86.9774 134.361C86.9477 133.808 87.1088 133.002 87.6074 132.415C88.0366 131.91 88.909 131.339 90.8234 131.531L91.1238 128.547ZM93.6536 130.274C92.3394 130.274 91.325 130.332 90.5459 130.47C89.7848 130.604 89.0555 130.845 88.5026 131.364C87.9085 131.922 87.7403 132.592 87.6638 133.041C87.629 133.245 87.6014 133.487 87.5822 133.635C87.5595 133.808 87.5363 133.957 87.5023 134.103L90.4249 134.781C90.4914 134.494 90.5294 134.233 90.5568 134.024C90.5877 133.788 90.5993 133.673 90.6211 133.545C90.6576 133.331 90.672 133.442 90.5569 133.551C90.483 133.62 90.5293 133.519 91.0671 133.424C91.587 133.332 92.395 133.274 93.6536 133.274V130.274ZM102.826 118.515C96.9938 111.805 95.0196 104.54 95.0196 101.621H92.0196C92.0196 105.374 94.3334 113.317 100.562 120.483L102.826 118.515ZM73.8109 125.262L88.953 126.729L89.2423 123.743L74.1002 122.276L73.8109 125.262ZM92.2039 133.088L76.2579 140.693L77.5493 143.401L93.4953 135.796L92.2039 133.088ZM31.6129 116.787C30.3541 115.331 30.8334 113.615 31.552 113.034C31.8307 112.809 32.1462 112.731 32.5864 112.944C33.1254 113.205 33.9765 113.983 34.8376 115.905L37.5756 114.679C36.5764 112.448 35.3354 110.942 33.8941 110.244C32.354 109.498 30.801 109.784 29.6666 110.701C27.5593 112.403 27.0347 116.079 29.3437 118.749L31.6129 116.787ZM37.5545 115.95C38.5297 113.953 39.4372 113.234 39.9583 113.033C40.3455 112.884 40.6466 112.963 40.9453 113.291C41.6758 114.095 42.0251 116.268 40.2156 118.022L42.3032 120.176C45.1679 117.401 45.0835 113.384 43.1654 111.274C42.1397 110.145 40.5628 109.586 38.8799 110.234C37.3309 110.831 35.9762 112.345 34.8587 114.634L37.5545 115.95ZM40.2157 118.022C38.0949 120.076 36.7903 121.433 35.9961 122.338C35.6 122.789 35.311 123.15 35.1062 123.445C34.9262 123.704 34.7184 124.039 34.6269 124.416L37.5423 125.124C37.4962 125.314 37.4304 125.358 37.5697 125.157C37.6842 124.992 37.8919 124.726 38.2507 124.317C38.966 123.502 40.2034 122.211 42.3031 120.176L40.2157 118.022ZM34.8042 125.551C34.827 125.589 34.8428 125.616 34.8535 125.634C34.8654 125.655 34.8695 125.663 34.8823 125.686L37.4991 124.218C37.484 124.192 37.441 124.113 37.365 123.989L34.8042 125.551ZM35.6189 126.339C35.6031 126.332 35.4184 126.261 35.2295 126.1C35.1211 126.008 34.9841 125.864 34.8758 125.656C34.7626 125.439 34.7067 125.202 34.7067 124.967H37.7067C37.7067 124.423 37.4269 124.031 37.1752 123.817C36.9807 123.651 36.788 123.576 36.7625 123.565L35.6189 126.339ZM34.7067 124.967C34.7067 124.956 34.7067 124.915 34.7105 124.863C34.7125 124.834 34.722 124.685 34.7813 124.505C34.8077 124.424 35.051 123.674 35.9138 123.503C36.6792 123.351 37.1767 123.831 37.2068 123.858C37.3287 123.968 37.4031 124.072 37.4222 124.099C37.4517 124.14 37.4723 124.174 37.481 124.188C37.4911 124.205 37.4984 124.217 37.5014 124.223C37.5048 124.229 37.507 124.233 37.5072 124.233L34.8742 125.671C34.879 125.68 34.8959 125.711 34.9174 125.746C34.9282 125.764 34.9507 125.8 34.9818 125.844C35.0025 125.873 35.0783 125.979 35.2012 126.089C35.2325 126.117 35.7309 126.598 36.4969 126.446C37.3605 126.275 37.6043 125.524 37.6311 125.442C37.6908 125.261 37.7005 125.11 37.7027 125.078C37.7066 125.024 37.7067 124.981 37.7067 124.967H34.7067ZM36.7028 123.542C36.6628 123.528 36.6301 123.518 36.6138 123.513C36.6049 123.51 36.5974 123.508 36.5927 123.506C36.5886 123.505 36.5842 123.504 36.5838 123.504C36.5751 123.501 36.6057 123.51 36.6433 123.523C36.7157 123.548 36.9106 123.621 37.108 123.798C37.3312 123.998 37.4862 124.265 37.5473 124.558C37.6018 124.82 37.5661 125.026 37.5422 125.124L34.627 124.416C34.5835 124.595 34.5462 124.862 34.6105 125.17C34.6813 125.51 34.8576 125.81 35.107 126.033C35.3307 126.234 35.5568 126.321 35.6591 126.357C35.7117 126.375 35.7568 126.388 35.7616 126.389C35.7872 126.396 35.7346 126.382 35.6786 126.362L36.7028 123.542ZM37.3642 123.987C36.9768 123.354 35.7574 121.578 31.6128 116.787L29.3438 118.749C33.4716 123.522 34.5538 125.142 34.805 125.553L37.3642 123.987ZM29.3438 118.749C32.1393 121.982 33.5416 123.772 34.2372 124.725C34.5836 125.2 34.7472 125.457 34.8172 125.573C34.8509 125.629 34.8638 125.653 34.882 125.686C34.8852 125.691 34.9015 125.721 34.9218 125.754C34.932 125.77 34.9543 125.806 34.9853 125.849C35.005 125.876 35.083 125.985 35.21 126.097C35.241 126.125 35.773 126.628 36.5682 126.43C37.409 126.221 37.6225 125.471 37.6399 125.415C37.6928 125.243 37.7013 125.101 37.7032 125.071C37.7067 125.02 37.7067 124.98 37.7067 124.967H34.7067C34.7067 124.957 34.7067 124.919 34.7099 124.871C34.7118 124.844 34.72 124.703 34.7725 124.533C34.7895 124.477 35.0025 123.729 35.8427 123.519C36.6371 123.321 37.1683 123.824 37.1981 123.851C37.3241 123.962 37.4008 124.07 37.4189 124.095C37.4483 124.135 37.4688 124.168 37.4769 124.182C37.4928 124.207 37.5038 124.227 37.4999 124.221C37.4901 124.203 37.4505 124.13 37.3859 124.023C37.2596 123.814 37.0443 123.483 36.6608 122.957C35.8965 121.909 34.4346 120.049 31.6128 116.787L29.3438 118.749ZM37.7067 124.967C37.7067 124.45 37.4526 124.064 37.2019 123.84C36.9987 123.659 36.7964 123.579 36.7388 123.556C36.6645 123.527 36.6001 123.509 36.5967 123.508C36.5735 123.501 36.5969 123.508 36.6139 123.514C36.6757 123.533 37.1728 123.685 37.4388 124.239C37.684 124.749 37.5299 125.176 37.5122 125.225C37.4814 125.311 37.4654 125.311 37.5501 125.186C37.9044 124.663 39.0538 123.325 42.3032 120.176L40.2156 118.022C36.9993 121.138 35.6223 122.683 35.0667 123.503C34.9239 123.714 34.7815 123.953 34.689 124.211C34.6096 124.431 34.4584 124.963 34.735 125.538C35.0325 126.157 35.5895 126.336 35.7033 126.372C35.7333 126.382 35.7693 126.392 35.7575 126.388C35.7569 126.388 35.7452 126.385 35.7294 126.38C35.7138 126.375 35.6837 126.365 35.6461 126.35C35.5972 126.331 35.4021 126.255 35.2038 126.078C34.958 125.859 34.7067 125.477 34.7067 124.967H37.7067Z" fill="#F3F3F3"/>
</svg>
