<svg width="135" height="144" viewBox="0 0 135 144" fill="none" xmlns="http://www.w3.org/2000/svg">
<path d="M91 125L74.5 123.5L77.5 142L94.5 134L92 132.5L90 130.5L88 129H85.5L80.5 130.5L84 127L91 125Z" fill="#C1CAD6" stroke="black"/>
<path d="M67.5 89L61 98.5L70.5 100L74 123.5L84.5 124.5L87 126.5L94 124.5L102.5 126.5L103.5 130.5L97 133.5L100.5 136.5L111 135L120 126.5L116.5 112.5L111 100L97 82V79.5L95.5 76H84.5H75.5V82L67.5 89Z" fill="#9F8190" stroke="black"/>
<path d="M72.9584 21.3036C72.9584 35.1791 79.6456 38.1143 87.1496 38.1143M87.1496 27.9745C88.4896 42.6505 106.229 46.3862 111.002 42.6505M108.59 58.3938C118.147 56.2591 115.144 45.8525 108.59 45.8525" stroke="black" stroke-width="3"/>
<path d="M80.1816 4.49298C96.7976 -1.91108 110.466 5.6101 116.63 9.3458C122.794 13.0815 132.442 26.957 132.978 38.4309C133.407 47.61 127.528 59.4219 123.598 73.1195C122.883 74.2758 120.382 95.1601 123.598 97.9352M108.322 79.2069C105.106 86.9452 107.875 94.3774 111.002 97.9352M58.6075 81.6085C58.6075 88.2794 58.8755 91.4814 54.3195 96.1171M63.8335 85.0773C65.1735 88.0125 63.0295 93.6161 60.0815 96.1171M113.682 73.1195C109.179 84.4333 114.307 94.3774 117.434 97.9352" stroke="black" stroke-width="3"/>
<path d="M67.4148 26.3735C54.3656 43.6392 59.0103 59.7837 67.4148 64.9409C75.8193 70.0982 89.7224 69.3494 97.3336 64.9409" stroke="black" stroke-width="3"/>
<path d="M77.5016 4.75983C53.9175 5.56033 50.1655 28.775 53.6495 50.3887C56.4367 67.6797 54.0961 89.4357 50.1655 96.5513" stroke="black" stroke-width="3"/>
<path d="M70.8015 50.6555C72.9456 40.5158 76.6976 45.5856 76.6976 50.6555M82.3256 50.6555C84.4696 40.5158 88.2216 45.5856 88.2216 50.6555" stroke="black" stroke-width="3"/>
<path d="M78.8416 68.5335C78.6272 69.3874 78.7523 74.226 78.8416 76.5386" stroke="black" stroke-width="3"/>
<path d="M93.3136 66.6656V76.5386" stroke="black" stroke-width="3"/>
<path d="M76 83C74.1779 78.0635 75.3761 76.5123 77.3679 75.9763C79.3597 75.4403 93.1434 75.419 94.6964 75.9763C95.8915 76.4052 96.9317 77.284 96.9317 78.9401C96.9317 80.4077 95.902 82.1995 95.5 83" stroke="black" stroke-width="3"/>
<path d="M77 81.5C68.826 85.1023 63.5655 93.8829 61.0195 99.6199M95 81C98.7778 83.6933 103.838 89.3646 105.508 92.4153C105.508 92.4153 110.198 97.5597 110.198 99.6199" stroke="black" stroke-width="3"/>
<path d="M70.8881 100.203L3.60878 94.3423L9.21085 136.214L77.0241 142.121L70.8881 100.203Z" fill="#C1CAD6" stroke="black" stroke-width="3"/>
<path d="M104.704 91.2145C115.531 106.157 119.89 120.033 120.382 126.303C113.199 136.123 102.962 137.244 100.014 136.577C95.2968 131.987 94.1176 134.042 93.1796 134.442L103.766 130.973C105.91 125.903 95.1896 124.836 93.1796 124.836M93.1796 124.836C91.1696 124.836 84.4696 127.104 82.4596 128.705C80.8516 129.986 80.2709 131.284 80.1816 131.774M93.1796 124.836C91.0356 122.167 94.6536 121.157 95.3236 120.967C96.2616 120.7 99.8797 118.565 108.054 119.099M88.2216 128.705C83.612 130.092 83.7996 131.106 83.3976 132.974M91.9736 130.039C87.364 129.575 86.3903 132.781 86.4796 134.442M94.6536 131.774C89.508 131.774 90.3656 132.707 89.9636 134.442" stroke="black" stroke-width="3"/>
<path d="M102.694 119.499C96.6636 112.561 94.5196 104.957 94.5196 101.621" stroke="black" stroke-width="3"/>
<path d="M93.8496 134.442L77.9036 142.047M74.9556 123.769L90.0976 125.236L74.9556 123.769Z" stroke="black" stroke-width="3"/>
<path d="M31.4783 117.768C27.9105 113.642 33.4861 106.985 37.2066 115.292C41.3919 106.72 46.9336 114.57 42.2594 119.099C38.0389 123.188 37.1754 124.396 37.0846 124.77C37.1444 124.868 37.175 124.924 37.1907 124.952C37.2004 124.956 37.2067 124.96 37.2067 124.967C37.2067 124.979 37.2049 124.978 37.1907 124.952C37.1494 124.937 37.0455 124.931 37.0846 124.77C36.7653 124.248 35.6145 122.55 31.4783 117.768Z" fill="#F3F3F3"/>
<path d="M37.2066 115.292C33.4861 106.985 27.9105 113.642 31.4783 117.768C37.0956 124.263 37.2067 125.068 37.2067 124.967C37.2067 124.866 35.7937 125.364 42.2594 119.099C46.9336 114.57 41.3919 106.72 37.2066 115.292Z" fill="#C4C4C4" fill-opacity="0.3" stroke="black" stroke-width="3"/>
</svg>
